<?xml version="1.0" encoding="UTF-8" standalone="no"?>
<!DOCTYPE svg PUBLIC "-//W3C//DTD SVG 1.1//EN" "http://www.w3.org/Graphics/SVG/1.1/DTD/svg11.dtd">
<svg width="100%" height="100%" viewBox="0 0 2008 2636" version="1.1" xmlns="http://www.w3.org/2000/svg" xmlns:xlink="http://www.w3.org/1999/xlink" xml:space="preserve" xmlns:serif="http://www.serif.com/" style="fill-rule:evenodd;clip-rule:evenodd;stroke-linecap:round;stroke-linejoin:round;stroke-miterlimit:1.5;">
    <g>
        <path d="M1949.41,445.144C1949.41,231.658 1776.09,58.333 1562.6,58.333L445.144,58.333C231.658,58.333 58.333,231.658 58.333,445.144L58.333,1218.77C58.333,1432.25 231.658,1605.58 445.144,1605.58L1562.6,1605.58C1776.09,1605.58 1949.41,1432.25 1949.41,1218.77L1949.41,445.144Z" style="fill:rgb(97,218,251);stroke:black;stroke-width:70.83px;"/>
        <path d="M518.963,2324.28C518.963,2277.67 481.123,2239.83 434.514,2239.83L142.782,2239.83C96.174,2239.83 58.333,2277.67 58.333,2324.28L58.333,2493.18C58.333,2539.78 96.174,2577.62 142.782,2577.62L434.514,2577.62C481.123,2577.62 518.963,2539.78 518.963,2493.18L518.963,2324.28Z" style="fill:rgb(97,218,251);stroke:black;stroke-width:70.83px;"/>
        <path d="M1948.1,2324.28C1948.1,2277.67 1910.26,2239.83 1863.65,2239.83L1571.92,2239.83C1525.31,2239.83 1487.47,2277.67 1487.47,2324.28L1487.47,2493.18C1487.47,2539.78 1525.31,2577.62 1571.92,2577.62L1863.65,2577.62C1910.26,2577.62 1948.1,2539.78 1948.1,2493.18L1948.1,2324.28Z" style="fill:rgb(97,218,251);stroke:black;stroke-width:70.83px;"/>
        <path d="M1234.19,2324.28C1234.19,2277.67 1196.35,2239.83 1149.74,2239.83L858.005,2239.83C811.397,2239.83 773.556,2277.67 773.556,2324.28L773.556,2493.18C773.556,2539.78 811.397,2577.62 858.005,2577.62L1149.74,2577.62C1196.35,2577.62 1234.19,2539.78 1234.19,2493.18L1234.19,2324.28Z" style="fill:rgb(97,218,251);stroke:black;stroke-width:70.83px;"/>
        <path d="M1820,472.936C1820,302.988 1682.02,165.012 1512.08,165.012L495.667,165.012C325.719,165.012 187.743,302.988 187.743,472.936L187.743,1190.98C187.743,1360.92 325.719,1498.9 495.667,1498.9L1512.08,1498.9C1682.02,1498.9 1820,1360.92 1820,1190.98L1820,472.936Z" style="fill:white;stroke:black;stroke-width:18.67px;"/>
        <path d="M1003.22,2219.75L1003.22,1605.58" style="fill:none;stroke:black;stroke-width:70.83px;"/>
        <path d="M777.294,1605.58L777.294,1818.3C777.294,1883.46 724.469,1936.29 659.306,1936.29L406.322,1936.29C341.332,1936.29 288.648,1988.97 288.648,2053.96L288.648,2239.83" style="fill:none;stroke:black;stroke-width:70.83px;"/>
        <path d="M1227.62,1605.58L1227.62,1818.63C1227.62,1849.84 1240.02,1879.76 1262.09,1901.83C1284.15,1923.89 1314.07,1936.29 1345.28,1936.29L1600.11,1936.29C1665.1,1936.29 1717.78,1988.97 1717.78,2053.95L1717.78,2239.83" style="fill:none;stroke:black;stroke-width:70.83px;"/>
    </g>
    <path d="M629.159,1048.3C577.085,1033.57 531.074,1015.9 492.833,995.987C406.163,950.855 358.578,892.156 358.578,831.955C358.578,771.755 406.163,713.056 492.833,667.924C531.074,648.01 577.085,630.34 629.159,615.615C615.874,563.155 608.171,514.473 606.297,471.399C602.047,373.775 629.09,303.216 681.225,273.115C733.36,243.015 807.987,254.875 890.408,307.367C926.773,330.528 965.082,361.54 1003.87,399.275C1042.66,361.54 1080.97,330.528 1117.34,307.367C1199.76,254.875 1274.38,243.015 1326.52,273.115C1378.65,303.216 1405.7,373.775 1401.45,471.399C1399.57,514.473 1391.87,563.155 1378.58,615.615C1430.66,630.34 1476.67,648.01 1514.91,667.924C1601.58,713.056 1649.16,771.755 1649.16,831.955C1649.16,892.156 1601.58,950.855 1514.91,995.987C1476.67,1015.9 1430.66,1033.57 1378.58,1048.3C1391.87,1100.76 1399.57,1149.44 1401.45,1192.51C1405.7,1290.14 1378.65,1360.69 1326.52,1390.8C1274.38,1420.9 1199.76,1409.04 1117.34,1356.54C1080.97,1333.38 1042.66,1302.37 1003.87,1264.64C965.082,1302.37 926.773,1333.38 890.408,1356.54C807.987,1409.04 733.36,1420.9 681.225,1390.8C629.09,1360.69 602.047,1290.14 606.297,1192.51C608.171,1149.44 615.874,1100.76 629.159,1048.3ZM964.845,439.351C929.147,404.673 893.881,376.106 860.265,354.696C828.05,334.179 797.647,320.399 770.074,314.985C747.01,310.456 726.326,311.869 709.281,321.71C692.236,331.551 680.671,348.757 673.061,370.995C663.963,397.582 660.695,430.802 662.356,468.959C664.089,508.776 671.196,553.601 683.379,601.855C736.324,589.857 794.188,580.709 855.521,575.004C891.127,524.74 927.982,479.203 964.845,439.351ZM1268.39,766.095C1284.35,728.263 1297.95,691.295 1309.09,655.739C1272.72,647.609 1233.91,640.902 1193.17,635.804C1206.48,656.601 1219.54,678.048 1232.27,700.091C1244.99,722.134 1257.04,744.165 1268.39,766.095ZM1324.36,601.855C1336.55,553.601 1343.65,508.776 1345.39,468.959C1347.05,430.802 1343.78,397.582 1334.68,370.995C1327.07,348.757 1315.51,331.551 1298.46,321.71C1281.42,311.869 1260.73,310.456 1237.67,314.985C1210.1,320.399 1179.69,334.179 1147.48,354.696C1113.86,376.106 1078.6,404.673 1042.9,439.351C1079.76,479.204 1116.62,524.741 1152.22,575.004C1213.56,580.708 1271.42,589.857 1324.36,601.855ZM1042.9,1224.56C1078.6,1259.24 1113.86,1287.81 1147.48,1309.21C1179.69,1329.73 1210.1,1343.51 1237.67,1348.93C1260.73,1353.45 1281.42,1352.04 1298.46,1342.2C1315.51,1332.36 1327.07,1315.15 1334.68,1292.91C1343.78,1266.33 1347.05,1233.11 1345.39,1194.95C1343.65,1155.13 1336.55,1110.31 1324.36,1062.06C1271.42,1074.05 1213.56,1083.2 1152.22,1088.91C1116.62,1139.17 1079.76,1184.71 1042.9,1224.56ZM1363.39,994.46C1411.27,980.884 1453.64,964.626 1488.99,946.218C1522.87,928.578 1550,909.138 1568.48,887.966C1583.93,870.256 1593.05,851.637 1593.05,831.955C1593.05,812.274 1583.93,793.655 1568.48,775.945C1550,754.773 1522.87,735.333 1488.99,717.693C1453.64,699.285 1411.27,683.027 1363.39,669.451C1347.31,721.301 1326.3,775.987 1300.57,831.955C1326.3,887.923 1347.31,942.609 1363.39,994.46ZM1193.17,1028.11C1233.91,1023.01 1272.72,1016.3 1309.09,1008.17C1297.95,972.616 1284.35,935.647 1268.39,897.815C1257.04,919.745 1244.99,941.777 1232.27,963.82C1219.54,985.863 1206.48,1007.31 1193.17,1028.11ZM1079.1,569.944C1054.31,537.21 1029.09,506.949 1003.87,479.524C978.649,506.949 953.433,537.21 928.647,569.944C953.316,568.811 978.418,568.227 1003.87,568.227C1029.32,568.227 1054.43,568.811 1079.1,569.944ZM739.351,897.815C723.395,935.647 709.796,972.616 698.657,1008.17C735.018,1016.3 773.834,1023.01 814.575,1028.11C801.259,1007.31 788.202,985.863 775.476,963.82C762.749,941.777 750.704,919.745 739.351,897.815ZM814.575,635.804C773.834,640.902 735.018,647.609 698.657,655.74C709.796,691.295 723.395,728.264 739.351,766.096C750.704,744.165 762.749,722.134 775.476,700.091C788.202,678.048 801.259,656.601 814.575,635.804ZM683.379,1062.06C671.196,1110.31 664.089,1155.13 662.356,1194.95C660.695,1233.11 663.963,1266.33 673.061,1292.91C680.671,1315.15 692.236,1332.36 709.281,1342.2C726.326,1352.04 747.01,1353.45 770.074,1348.93C797.647,1343.51 828.05,1329.73 860.265,1309.21C893.881,1287.81 929.147,1259.24 964.845,1224.56C927.982,1184.71 891.127,1139.17 855.521,1088.91C794.188,1083.2 736.324,1074.05 683.379,1062.06ZM644.353,669.451C596.472,683.027 554.099,699.285 518.75,717.693C484.874,735.333 457.738,754.773 439.263,775.945C423.809,793.655 414.691,812.274 414.691,831.955C414.691,851.637 423.809,870.256 439.263,887.966C457.738,909.138 484.874,928.578 518.75,946.218C554.099,964.626 596.472,980.884 644.353,994.46C660.435,942.609 681.443,887.924 707.17,831.955C681.443,775.987 660.435,721.301 644.353,669.451ZM928.647,1093.97C953.433,1126.7 978.649,1156.96 1003.87,1184.39C1029.09,1156.96 1054.31,1126.7 1079.1,1093.97C1054.43,1095.1 1029.32,1095.68 1003.87,1095.68C978.418,1095.68 953.316,1095.1 928.647,1093.97ZM886.495,628.653C865.057,660.12 844.15,693.369 824.071,728.147C803.992,762.925 785.65,797.656 769.118,831.955C785.65,866.255 803.992,900.985 824.071,935.763C844.15,970.541 865.057,1003.79 886.495,1035.26C924.465,1038.09 963.713,1039.57 1003.87,1039.57C1044.03,1039.57 1083.28,1038.09 1121.25,1035.26C1142.69,1003.79 1163.59,970.541 1183.67,935.763C1203.75,900.985 1222.09,866.255 1238.62,831.955C1222.09,797.656 1203.75,762.925 1183.67,728.147C1163.59,693.369 1142.69,660.12 1121.25,628.653C1083.28,625.821 1044.03,624.339 1003.87,624.339C963.713,624.339 924.465,625.821 886.495,628.653ZM1003.87,716.925C1067.36,716.925 1118.9,768.468 1118.9,831.955C1118.9,895.442 1067.36,946.986 1003.87,946.986C940.384,946.986 888.841,895.442 888.841,831.955C888.841,768.468 940.384,716.925 1003.87,716.925Z" style="fill:rgb(97,218,251);stroke:black;stroke-width:8px;stroke-linecap:butt;stroke-miterlimit:2;"/>
</svg>
